<?xml version="1.0" encoding="UTF-8"?>
<svg id="Camada_2" data-name="Camada 2" xmlns="http://www.w3.org/2000/svg" width="125" height="32" viewBox="0 0 910.73 233.14">
  <defs>
    <style>
      .cls-1 {
        fill: #506690;
      }
    </style>
  </defs>
  <g id="Camada_1-2" data-name="Camada 1">
    <g>
      <path class="cls-1" d="m43.31,154.09c-13.17,0-23.68-4.66-31.53-13.98C3.93,130.78,0,116.97,0,98.65s3.99-32.51,11.98-41.99c7.98-9.48,18.59-14.23,31.82-14.23,5.54,0,10.4.75,14.57,2.25s7.77,3.49,10.8,5.96,5.56,5.28,7.58,8.41h1.17c-.33-2.02-.65-4.86-.98-8.51s-.49-6.84-.49-9.58V0h19.65v152.13h-15.55l-3.23-14.96h-.88c-1.96,3.13-4.45,5.98-7.48,8.55s-6.65,4.61-10.85,6.11-9.14,2.25-14.81,2.25Zm4.6-16.03c10.62,0,18.14-3.06,22.54-9.19s6.63-15.22,6.7-27.28v-3.03c0-12.84-2.1-22.7-6.31-29.58s-11.91-10.31-23.12-10.31c-9.13,0-16,3.57-20.63,10.71-4.63,7.14-6.94,17.03-6.94,29.67s2.31,22.14,6.94,28.89c4.63,6.75,11.57,10.12,20.83,10.12Z"/>
      <path class="cls-1" d="m170.9,42.53c13.3,0,23.24,2.95,29.82,8.85s9.87,15.2,9.87,27.91v72.84h-14.08l-3.81-15.64h-.78c-3,3.91-6.13,7.17-9.39,9.78-3.26,2.61-7.02,4.56-11.29,5.87-4.27,1.3-9.47,1.96-15.59,1.96-6.52,0-12.32-1.17-17.4-3.52s-9.08-5.88-11.98-10.61-4.35-10.74-4.35-18.04c0-10.95,4.2-19.26,12.61-24.93s21.15-8.77,38.23-9.29l18.58-.78v-6.06c0-8.41-1.87-14.34-5.62-17.79s-8.98-5.18-15.69-5.18c-5.54,0-10.85.8-15.94,2.4s-9.97,3.5-14.67,5.72l-6.26-14.27c5.08-2.61,10.87-4.79,17.35-6.55s13.28-2.64,20.39-2.64Zm20.24,57.29l-15.06.68c-12.45.46-21.2,2.53-26.25,6.21s-7.58,8.82-7.58,15.4c0,5.74,1.73,9.94,5.18,12.61s8.02,4.01,13.69,4.01c8.73,0,15.92-2.46,21.56-7.38s8.46-12.2,8.46-21.85v-9.68Z"/>
      <path class="cls-1" d="m280.89,138.15c2.8,0,5.64-.24,8.51-.73s5.34-1.12,7.43-1.91v15.06c-2.22.98-5.17,1.81-8.85,2.49s-7.45,1.03-11.29,1.03c-5.87,0-11.18-1.01-15.94-3.03s-8.55-5.48-11.39-10.36-4.25-11.67-4.25-20.34v-60.81h-14.96v-9.09l15.64-7.24,6.94-23.27h12.12v24.44h31.19v15.15h-31.19v60.52c0,6.06,1.45,10.59,4.35,13.59s6.8,4.5,11.68,4.5Z"/>
      <path class="cls-1" d="m359.89,42.53c13.3,0,23.24,2.95,29.82,8.85,6.58,5.9,9.87,15.2,9.87,27.91v72.84h-14.08l-3.81-15.64h-.78c-3,3.91-6.13,7.17-9.39,9.78-3.26,2.61-7.02,4.56-11.29,5.87s-9.47,1.96-15.59,1.96c-6.52,0-12.32-1.17-17.4-3.52s-9.08-5.88-11.98-10.61c-2.9-4.73-4.35-10.74-4.35-18.04,0-10.95,4.2-19.26,12.61-24.93s21.15-8.77,38.23-9.29l18.58-.78v-6.06c0-8.41-1.87-14.34-5.62-17.79s-8.98-5.18-15.69-5.18c-5.54,0-10.85.8-15.94,2.4s-9.97,3.5-14.67,5.72l-6.26-14.27c5.08-2.61,10.87-4.79,17.35-6.55s13.28-2.64,20.39-2.64Zm20.24,57.29l-15.06.68c-12.45.46-21.2,2.53-26.25,6.21s-7.58,8.82-7.58,15.4c0,5.74,1.73,9.94,5.18,12.61s8.02,4.01,13.69,4.01c8.73,0,15.92-2.46,21.56-7.38,5.64-4.92,8.46-12.2,8.46-21.85v-9.68Z"/>
      <path class="cls-1" d="m485.33,42.43c13.1,0,23.58,4.64,31.43,13.93s11.78,23.16,11.78,41.6c0,12.25-1.81,22.54-5.43,30.85-3.62,8.31-8.7,14.6-15.25,18.87s-14.23,6.4-23.02,6.4c-5.54,0-10.4-.73-14.57-2.2-4.17-1.47-7.74-3.42-10.71-5.87s-5.46-5.07-7.48-7.87h-1.27c.26,2.54.54,5.49.83,8.85s.44,6.37.44,9.04v44h-19.75V44.39h16.13l2.64,15.45h.98c2.02-3.19,4.51-6.11,7.48-8.75s6.57-4.74,10.8-6.31,9.22-2.35,14.96-2.35Zm-4.5,16.23c-6.91,0-12.43,1.35-16.57,4.06-4.14,2.7-7.17,6.73-9.09,12.07s-2.95,12.06-3.08,20.14v3.13c0,8.6.91,15.86,2.74,21.75,1.83,5.9,4.86,10.4,9.09,13.49,4.24,3.1,9.94,4.64,17.11,4.64,6.13,0,11.23-1.66,15.3-4.99s7.1-8.02,9.09-14.08,2.98-13.1,2.98-21.12c0-12.19-2.25-21.75-6.75-28.7s-11.44-10.41-20.83-10.41Z"/>
      <path class="cls-1" d="m650.07,98.06c0,8.86-1.16,16.77-3.47,23.71-2.31,6.94-5.67,12.81-10.07,17.6s-9.7,8.44-15.89,10.95-13.2,3.76-21.02,3.76c-7.3,0-14-1.25-20.09-3.76s-11.36-6.16-15.79-10.95-7.85-10.66-10.27-17.6c-2.41-6.94-3.62-14.84-3.62-23.71,0-11.8,2.02-21.85,6.06-30.16s9.83-14.63,17.35-18.97,16.51-6.5,26.94-6.5,18.61,2.18,26.1,6.55,13.33,10.69,17.5,18.97,6.26,18.32,6.26,30.11Zm-80.07,0c0,8.28,1.06,15.4,3.18,21.36s5.38,10.54,9.78,13.74,10.09,4.79,17.06,4.79,12.48-1.6,16.91-4.79,7.69-7.77,9.78-13.74,3.13-13.08,3.13-21.36-1.04-15.25-3.13-21.12-5.33-10.36-9.73-13.49-10.12-4.69-17.16-4.69c-10.3,0-17.84,3.44-22.63,10.31s-7.19,16.54-7.19,28.99Z"/>
      <path class="cls-1" d="m687.23,3.62c3.13,0,5.82.91,8.07,2.74s3.37,4.79,3.37,8.9-1.12,7.09-3.37,8.95-4.94,2.79-8.07,2.79-5.88-.93-8.07-2.79c-2.18-1.86-3.28-4.84-3.28-8.95s1.09-7.07,3.28-8.9c2.18-1.83,4.87-2.74,8.07-2.74Zm9.68,40.77v107.74h-19.65V44.39h19.65Z"/>
      <path class="cls-1" d="m784.02,42.43c12.45,0,22.01,3.13,28.7,9.39s10.02,16.3,10.02,30.11v70.2h-19.46v-67.56c0-8.6-1.89-15.07-5.67-19.41s-9.58-6.5-17.4-6.5c-11.15,0-18.95,3.29-23.42,9.87-4.46,6.58-6.7,16.13-6.7,28.65v54.95h-19.65V44.39h15.55l2.84,15.15h1.08c2.28-3.78,5.18-6.94,8.7-9.48s7.45-4.45,11.78-5.72,8.88-1.91,13.64-1.91Z"/>
      <path class="cls-1" d="m893.03,138.15c2.8,0,5.64-.24,8.51-.73s5.34-1.12,7.43-1.91v15.06c-2.22.98-5.17,1.81-8.85,2.49s-7.45,1.03-11.29,1.03c-5.87,0-11.18-1.01-15.94-3.03-4.76-2.02-8.55-5.48-11.39-10.36s-4.25-11.67-4.25-20.34v-60.81h-14.96v-9.09l15.64-7.24,6.94-23.27h12.12v24.44h31.19v15.15h-31.19v60.52c0,6.06,1.45,10.59,4.35,13.59s6.8,4.5,11.68,4.5Z"/>
      <path class="cls-1" d="m569.37,228.51c0-1.65.42-2.82,1.25-3.5s1.85-1.03,3.05-1.03,2.25.34,3.1,1.03,1.27,1.85,1.27,3.5-.42,2.78-1.27,3.52-1.88,1.11-3.1,1.11-2.21-.37-3.05-1.11-1.25-1.91-1.25-3.52Z"/>
      <path class="cls-1" d="m618.61,222.19c0,2.32-.57,4.29-1.71,5.88s-2.8,2.8-4.97,3.6-4.78,1.21-7.82,1.21c-2.52,0-4.69-.19-6.52-.57s-3.48-.93-4.95-1.65v-5.8c1.59.76,3.42,1.43,5.51,2.02s4.13.88,6.13.88c2.8,0,4.83-.45,6.08-1.34s1.87-2.1,1.87-3.62c0-.89-.25-1.68-.75-2.36s-1.37-1.37-2.62-2.05-3.04-1.47-5.36-2.36c-2.28-.89-4.23-1.78-5.85-2.67s-2.85-1.97-3.7-3.23-1.27-2.89-1.27-4.89c0-3.11,1.24-5.48,3.73-7.12s5.77-2.46,9.86-2.46c2.17,0,4.22.22,6.14.65s3.76,1.04,5.52,1.83l-2.12,5.05c-1.56-.67-3.17-1.23-4.82-1.68s-3.34-.67-5.05-.67c-2.24,0-3.95.36-5.13,1.08s-1.78,1.71-1.78,2.97c0,.98.28,1.79.83,2.44s1.48,1.29,2.79,1.91,3.06,1.35,5.28,2.2c2.19.83,4.09,1.68,5.69,2.57s2.83,1.98,3.7,3.26,1.3,2.92,1.3,4.92Z"/>
      <path class="cls-1" d="m665.14,214.2c0,2.95-.39,5.59-1.16,7.9s-1.89,4.27-3.36,5.87-3.23,2.81-5.3,3.65-4.4,1.25-7.01,1.25c-2.43,0-4.67-.42-6.7-1.25s-3.79-2.05-5.26-3.65-2.62-3.55-3.42-5.87-1.21-4.95-1.21-7.9c0-3.93.67-7.28,2.02-10.05s3.28-4.88,5.78-6.32,5.5-2.17,8.98-2.17,6.2.73,8.7,2.18,4.44,3.56,5.83,6.32,2.09,6.11,2.09,10.04Zm-26.69,0c0,2.76.35,5.13,1.06,7.12s1.79,3.51,3.26,4.58,3.36,1.6,5.69,1.6,4.16-.53,5.64-1.6,2.56-2.59,3.26-4.58,1.04-4.36,1.04-7.12-.35-5.08-1.04-7.04-1.78-3.45-3.24-4.5c-1.47-1.04-3.37-1.56-5.72-1.56-3.43,0-5.95,1.15-7.54,3.44-1.6,2.29-2.4,5.51-2.4,9.66Z"/>
      <path class="cls-1" d="m697.85,201.36h-8.83v30.86h-6.55v-30.86h-6.09v-3.16l6.09-1.99v-2.48c0-3.02.47-5.45,1.4-7.28s2.28-3.18,4.02-4.02,3.87-1.27,6.37-1.27c1.5,0,2.87.13,4.12.39,1.25.26,2.33.55,3.24.88l-1.69,5.02c-.74-.24-1.56-.46-2.48-.67s-1.88-.31-2.9-.31c-1.89,0-3.29.61-4.19,1.83s-1.35,3.05-1.35,5.51v2.51h8.83v5.05Z"/>
      <path class="cls-1" d="m723.36,227.57c.93,0,1.88-.08,2.84-.24s1.78-.37,2.48-.64v5.02c-.74.33-1.72.6-2.95.83s-2.48.34-3.76.34c-1.96,0-3.73-.34-5.31-1.01s-2.85-1.83-3.8-3.45-1.42-3.89-1.42-6.78v-20.27h-4.99v-3.03l5.21-2.41,2.31-7.76h4.04v8.15h10.4v5.05h-10.4v20.17c0,2.02.48,3.53,1.45,4.53s2.27,1.5,3.89,1.5Z"/>
      <path class="cls-1" d="m771.92,232.16l-5.48-18.77c-.24-.85-.49-1.78-.77-2.8s-.54-2.04-.8-3.06-.49-1.97-.7-2.85-.36-1.59-.47-2.13h-.26c-.11.54-.26,1.25-.46,2.13s-.42,1.84-.67,2.87-.51,2.07-.78,3.11-.54,1.99-.8,2.84l-5.74,18.67h-7.24l-9.97-35.88h6.68l4.92,18.8c.33,1.26.64,2.56.95,3.91s.56,2.62.78,3.81.38,2.22.49,3.06h.26c.11-.56.24-1.27.41-2.1s.34-1.72.54-2.64.41-1.82.64-2.69c.23-.87.44-1.63.64-2.28l6.06-19.88h7.1l5.83,19.85c.28.96.58,2.03.88,3.21s.58,2.35.81,3.5.4,2.14.49,2.97h.26c.09-.74.25-1.69.49-2.87s.51-2.45.81-3.83.63-2.72.98-4.02l4.99-18.8h6.58l-10.04,35.88h-7.43Z"/>
      <path class="cls-1" d="m816.14,195.69c4.43,0,7.75.98,9.94,2.95s3.29,5.07,3.29,9.3v24.28h-4.69l-1.27-5.21h-.26c-1,1.3-2.04,2.39-3.13,3.26s-2.34,1.52-3.76,1.96-3.16.65-5.2.65c-2.17,0-4.11-.39-5.8-1.17s-3.03-1.96-3.99-3.54-1.45-3.58-1.45-6.01c0-3.65,1.4-6.42,4.2-8.31,2.8-1.89,7.05-2.92,12.74-3.1l6.19-.26v-2.02c0-2.8-.62-4.78-1.87-5.93s-2.99-1.73-5.23-1.73c-1.85,0-3.62.27-5.31.8s-3.32,1.17-4.89,1.91l-2.09-4.76c1.69-.87,3.62-1.6,5.78-2.18s4.43-.88,6.8-.88Zm6.75,19.1l-5.02.23c-4.15.15-7.07.84-8.75,2.07s-2.53,2.94-2.53,5.13c0,1.91.58,3.31,1.73,4.2s2.67,1.34,4.56,1.34c2.91,0,5.31-.82,7.19-2.46,1.88-1.64,2.82-4.07,2.82-7.28v-3.23Z"/>
      <path class="cls-1" d="m864.24,195.66c.65,0,1.36.04,2.12.11s1.41.17,1.96.28l-.68,6.09c-.52-.13-1.12-.24-1.81-.33s-1.32-.13-1.91-.13c-1.39,0-2.72.26-3.98.78s-2.37,1.28-3.32,2.27-1.71,2.19-2.25,3.62-.81,3.05-.81,4.87v19h-6.58v-35.91h5.28l.78,6.49h.29c.74-1.3,1.63-2.5,2.69-3.58s2.27-1.95,3.65-2.59,2.91-.96,4.58-.96Z"/>
      <path class="cls-1" d="m895.74,195.66c3.13,0,5.81.67,8.05,2s3.95,3.22,5.15,5.65c1.19,2.43,1.79,5.3,1.79,8.6v3.72h-24.38c.07,3.85,1.05,6.8,2.97,8.85s4.6,3.08,8.05,3.08c2.28,0,4.31-.22,6.09-.65,1.78-.43,3.63-1.08,5.54-1.92v5.51c-1.8.83-3.61,1.43-5.43,1.81s-3.98.57-6.5.57c-3.48,0-6.52-.7-9.14-2.09s-4.65-3.45-6.11-6.18-2.18-6.09-2.18-10.09.66-7.34,1.99-10.15,3.19-4.97,5.61-6.47c2.41-1.5,5.25-2.25,8.51-2.25Zm-.03,5.08c-2.65,0-4.78.86-6.39,2.59s-2.55,4.2-2.84,7.41h17.66c-.02-1.98-.34-3.72-.95-5.21s-1.53-2.67-2.75-3.52-2.81-1.27-4.74-1.27Z"/>
    </g>
  </g>
</svg>
